<svg width="439" height="76" viewBox="0 0 439 76" fill="none" xmlns="http://www.w3.org/2000/svg">
<g filter="url(#filter0_g_207_20)">
<path d="M79.0057 58.3037C78.0457 58.3037 77.2777 58.0477 76.7017 57.5357C76.1257 57.0237 75.8377 56.3197 75.8377 55.4237V38.6237C75.8377 33.9837 77.1657 30.3517 79.8217 27.7277C82.4777 25.1037 86.1737 23.7917 90.9097 23.7917C94.0137 23.7917 96.7017 24.3837 98.9737 25.5677C101.246 26.7517 102.974 28.4637 104.158 30.7037C105.374 32.9437 105.982 35.5837 105.982 38.6237V55.4237C105.982 56.3197 105.694 57.0237 105.118 57.5357C104.542 58.0477 103.774 58.3037 102.814 58.3037C101.854 58.3037 101.07 58.0477 100.462 57.5357C99.8857 56.9917 99.5977 56.2877 99.5977 55.4237V47.5997H82.2217V55.4237C82.2217 56.2877 81.9177 56.9917 81.3097 57.5357C80.7337 58.0477 79.9657 58.3037 79.0057 58.3037ZM99.5977 42.6557V38.4797C99.5977 35.2797 98.8617 32.8797 97.3897 31.2797C95.9497 29.6477 93.7897 28.8317 90.9097 28.8317C85.1177 28.8317 82.2217 32.0477 82.2217 38.4797V42.6557H99.5977Z" fill="#FF8585"/>
<path d="M135.092 72.2237C134.132 72.2237 133.364 71.9677 132.788 71.4557C132.212 70.9437 131.924 70.2397 131.924 69.3437L131.876 54.6077C130.852 55.8237 129.54 56.7517 127.94 57.3917C126.372 58.0317 124.628 58.3517 122.708 58.3517C118.772 58.3517 115.7 57.2797 113.492 55.1357C111.284 52.9597 110.18 49.9517 110.18 46.1117C110.18 42.2717 111.3 39.2797 113.54 37.1357C115.812 34.9597 118.964 33.8717 122.996 33.8717C126.58 33.8717 129.556 35.1517 131.924 37.7117V36.7517C131.924 35.8557 132.212 35.1517 132.788 34.6397C133.364 34.1277 134.132 33.8717 135.092 33.8717C136.084 33.8717 136.852 34.1277 137.396 34.6397C137.94 35.1517 138.212 35.8557 138.212 36.7517V69.3437C138.212 70.2397 137.94 70.9437 137.396 71.4557C136.852 71.9677 136.084 72.2237 135.092 72.2237ZM123.956 53.3597C126.452 53.3597 128.404 52.7197 129.812 51.4397C131.22 50.1597 131.924 48.3837 131.924 46.1117C131.924 43.8397 131.22 42.0637 129.812 40.7837C128.404 39.5037 126.452 38.8637 123.956 38.8637C121.62 38.8637 119.796 39.5037 118.484 40.7837C117.172 42.0637 116.516 43.8397 116.516 46.1117C116.516 48.3837 117.172 50.1597 118.484 51.4397C119.796 52.7197 121.62 53.3597 123.956 53.3597Z" fill="#FF8585"/>
<path d="M152.853 58.3517C149.557 58.3517 146.981 57.4077 145.125 55.5197C143.301 53.5997 142.389 50.9437 142.389 47.5517V36.7517C142.389 35.8557 142.677 35.1517 143.253 34.6397C143.829 34.1277 144.597 33.8717 145.557 33.8717C146.549 33.8717 147.317 34.1277 147.861 34.6397C148.405 35.1517 148.677 35.8557 148.677 36.7517V47.5517C148.677 49.3757 149.157 50.7997 150.117 51.8237C151.109 52.8477 152.485 53.3597 154.245 53.3597C156.517 53.3597 158.277 52.6397 159.525 51.1997C160.805 49.7597 161.445 47.7757 161.445 45.2477V36.7517C161.445 35.8557 161.733 35.1517 162.309 34.6397C162.885 34.1277 163.653 33.8717 164.613 33.8717C165.605 33.8717 166.373 34.1277 166.917 34.6397C167.461 35.1517 167.733 35.8557 167.733 36.7517V55.4717C167.733 56.3997 167.461 57.1197 166.917 57.6317C166.405 58.1117 165.669 58.3517 164.709 58.3517C163.749 58.3517 162.997 58.0957 162.453 57.5837C161.909 57.0717 161.637 56.3677 161.637 55.4717V54.0797C160.453 55.5517 159.141 56.6397 157.701 57.3437C156.293 58.0157 154.677 58.3517 152.853 58.3517Z" fill="#FF8585"/>
<path d="M176.096 30.8957C174.912 30.8957 173.952 30.5757 173.216 29.9357C172.512 29.2637 172.16 28.3997 172.16 27.3437C172.16 26.2877 172.512 25.4397 173.216 24.7997C173.952 24.1277 174.912 23.7917 176.096 23.7917C177.28 23.7917 178.24 24.1277 178.976 24.7997C179.744 25.4397 180.128 26.2877 180.128 27.3437C180.128 28.3997 179.744 29.2637 178.976 29.9357C178.24 30.5757 177.28 30.8957 176.096 30.8957ZM176.144 58.3517C175.152 58.3517 174.384 58.0957 173.84 57.5837C173.296 57.0717 173.024 56.3677 173.024 55.4717V36.7517C173.024 35.8557 173.296 35.1517 173.84 34.6397C174.384 34.1277 175.152 33.8717 176.144 33.8717C177.104 33.8717 177.872 34.1277 178.448 34.6397C179.024 35.1517 179.312 35.8557 179.312 36.7517V55.4717C179.312 56.3677 179.024 57.0717 178.448 57.5837C177.872 58.0957 177.104 58.3517 176.144 58.3517Z" fill="#FF8585"/>
<path d="M188.615 58.3517C187.623 58.3517 186.855 58.0957 186.311 57.5837C185.767 57.0717 185.495 56.3677 185.495 55.4717V24.3197C185.495 23.4237 185.767 22.7197 186.311 22.2077C186.855 21.6957 187.623 21.4397 188.615 21.4397C189.575 21.4397 190.343 21.6957 190.919 22.2077C191.495 22.7197 191.783 23.4237 191.783 24.3197V55.4717C191.783 56.3677 191.495 57.0717 190.919 57.5837C190.343 58.0957 189.575 58.3517 188.615 58.3517Z" fill="#FF8585"/>
<path d="M206.745 58.3517C204.761 58.3517 203.001 58.0157 201.465 57.3437C199.961 56.6717 198.777 55.7437 197.913 54.5597C197.081 53.3437 196.665 51.9517 196.665 50.3837C196.665 48.0157 197.641 46.1277 199.593 44.7197C201.577 43.3117 204.249 42.6077 207.609 42.6077C210.521 42.6077 212.857 43.2317 214.617 44.4797V43.3277C214.617 41.8237 214.153 40.6717 213.225 39.8717C212.297 39.0717 210.953 38.6717 209.193 38.6717C206.569 38.6717 204.313 39.2317 202.425 40.3517C201.625 40.7997 200.937 41.0237 200.361 41.0237C199.657 41.0237 199.033 40.7037 198.489 40.0637C198.137 39.6157 197.961 39.1517 197.961 38.6717C197.961 37.8717 198.377 37.1677 199.209 36.5597C200.361 35.7277 201.817 35.0717 203.577 34.5917C205.337 34.1117 207.193 33.8717 209.145 33.8717C212.857 33.8717 215.769 34.7197 217.881 36.4157C220.025 38.0797 221.097 40.3837 221.097 43.3277V55.6637C221.097 56.4957 220.809 57.1517 220.233 57.6317C219.689 58.1117 218.937 58.3517 217.977 58.3517C216.985 58.3517 216.217 58.1277 215.673 57.6797C215.129 57.2317 214.857 56.5917 214.857 55.7597V55.2317C213.033 57.3117 210.329 58.3517 206.745 58.3517ZM208.233 53.9357C210.249 53.9357 211.817 53.6317 212.937 53.0237C214.089 52.3837 214.665 51.5037 214.665 50.3837C214.665 49.3277 214.089 48.4797 212.937 47.8397C211.785 47.1997 210.249 46.8797 208.329 46.8797C206.601 46.8797 205.257 47.1837 204.297 47.7917C203.369 48.3997 202.905 49.2637 202.905 50.3837C202.905 51.5037 203.369 52.3837 204.297 53.0237C205.225 53.6317 206.537 53.9357 208.233 53.9357Z" fill="#FF8585"/>
<path d="M241.761 58.3517C240.801 58.3517 240.033 58.0957 239.457 57.5837C238.881 57.0717 238.593 56.3677 238.593 55.4717V31.3757C238.593 29.1357 239.233 27.3917 240.513 26.1437C241.825 24.8957 243.633 24.2717 245.937 24.2717H254.049C258.913 24.2717 262.609 25.2797 265.137 27.2957C267.665 29.3117 268.929 32.2717 268.929 36.1757C268.929 40.0797 267.697 43.0397 265.233 45.0557C262.769 47.0717 259.137 48.0797 254.337 48.0797H244.977V55.4717C244.977 56.3357 244.673 57.0397 244.065 57.5837C243.489 58.0957 242.721 58.3517 241.761 58.3517ZM254.289 43.1357C259.761 43.1357 262.497 40.8157 262.497 36.1757C262.497 31.5357 259.761 29.2157 254.289 29.2157H247.041C246.401 29.2157 245.889 29.4237 245.505 29.8397C245.153 30.2557 244.977 30.8317 244.977 31.5677V43.1357H254.289Z" fill="#FF8585"/>
<path d="M280.807 58.3517C278.823 58.3517 277.063 58.0157 275.527 57.3437C274.023 56.6717 272.839 55.7437 271.975 54.5597C271.143 53.3437 270.727 51.9517 270.727 50.3837C270.727 48.0157 271.703 46.1277 273.655 44.7197C275.639 43.3117 278.311 42.6077 281.671 42.6077C284.583 42.6077 286.919 43.2317 288.679 44.4797V43.3277C288.679 41.8237 288.215 40.6717 287.287 39.8717C286.359 39.0717 285.015 38.6717 283.255 38.6717C280.631 38.6717 278.375 39.2317 276.487 40.3517C275.687 40.7997 274.999 41.0237 274.423 41.0237C273.719 41.0237 273.095 40.7037 272.551 40.0637C272.199 39.6157 272.023 39.1517 272.023 38.6717C272.023 37.8717 272.439 37.1677 273.271 36.5597C274.423 35.7277 275.879 35.0717 277.639 34.5917C279.399 34.1117 281.255 33.8717 283.207 33.8717C286.919 33.8717 289.831 34.7197 291.943 36.4157C294.087 38.0797 295.159 40.3837 295.159 43.3277V55.6637C295.159 56.4957 294.871 57.1517 294.295 57.6317C293.751 58.1117 292.999 58.3517 292.039 58.3517C291.047 58.3517 290.279 58.1277 289.735 57.6797C289.191 57.2317 288.919 56.5917 288.919 55.7597V55.2317C287.095 57.3117 284.391 58.3517 280.807 58.3517ZM282.295 53.9357C284.311 53.9357 285.879 53.6317 286.999 53.0237C288.151 52.3837 288.727 51.5037 288.727 50.3837C288.727 49.3277 288.151 48.4797 286.999 47.8397C285.847 47.1997 284.311 46.8797 282.391 46.8797C280.663 46.8797 279.319 47.1837 278.359 47.7917C277.431 48.3997 276.967 49.2637 276.967 50.3837C276.967 51.5037 277.431 52.3837 278.359 53.0237C279.287 53.6317 280.599 53.9357 282.295 53.9357Z" fill="#FF8585"/>
<path d="M312.388 58.3517C308.1 58.3517 304.772 57.2797 302.404 55.1357C300.036 52.9597 298.852 49.9357 298.852 46.0637C298.852 42.1917 300.036 39.1997 302.404 37.0877C304.772 34.9437 308.1 33.8717 312.388 33.8717C314.66 33.8717 316.708 34.2557 318.532 35.0237C320.388 35.7597 321.844 36.8157 322.9 38.1917C323.284 38.6717 323.476 39.1837 323.476 39.7277C323.476 40.5597 323.044 41.2957 322.18 41.9357C321.796 42.2237 321.316 42.3677 320.74 42.3677C320.292 42.3677 319.828 42.2717 319.348 42.0797C318.868 41.8557 318.452 41.5517 318.1 41.1677C317.46 40.4317 316.628 39.8717 315.604 39.4877C314.612 39.0717 313.54 38.8637 312.388 38.8637C310.116 38.8637 308.34 39.5037 307.06 40.7837C305.812 42.0317 305.188 43.7917 305.188 46.0637C305.188 48.3997 305.812 50.2077 307.06 51.4877C308.34 52.7357 310.116 53.3597 312.388 53.3597C314.916 53.3597 317.076 52.5117 318.868 50.8157C319.764 49.9197 320.644 49.4717 321.508 49.4717C322.084 49.4717 322.612 49.6637 323.092 50.0477C323.86 50.6557 324.244 51.3917 324.244 52.2557C324.244 52.7997 324.02 53.3277 323.572 53.8397C322.1 55.4077 320.452 56.5597 318.628 57.2957C316.836 57.9997 314.756 58.3517 312.388 58.3517Z" fill="#FF8585"/>
<path d="M331.28 58.3517C330.288 58.3517 329.52 58.0957 328.976 57.5837C328.432 57.0717 328.16 56.3677 328.16 55.4717V24.3197C328.16 23.4237 328.432 22.7197 328.976 22.2077C329.52 21.6957 330.288 21.4397 331.28 21.4397C332.24 21.4397 333.008 21.6957 333.584 22.2077C334.16 22.7197 334.448 23.4237 334.448 24.3197V38.1437C335.632 36.6717 336.96 35.5997 338.432 34.9277C339.904 34.2237 341.616 33.8717 343.568 33.8717C346.64 33.8717 349.056 34.8477 350.816 36.7997C352.608 38.7197 353.504 41.3437 353.504 44.6717V55.4717C353.504 56.3677 353.216 57.0717 352.64 57.5837C352.064 58.0957 351.296 58.3517 350.336 58.3517C349.344 58.3517 348.576 58.0957 348.032 57.5837C347.488 57.0717 347.216 56.3677 347.216 55.4717V44.6717C347.216 42.8477 346.768 41.4237 345.872 40.3997C344.976 39.3757 343.728 38.8637 342.128 38.8637C339.696 38.8637 337.808 39.5837 336.464 41.0237C335.12 42.4317 334.448 44.4157 334.448 46.9757V55.4717C334.448 56.3677 334.16 57.0717 333.584 57.5837C333.008 58.0957 332.24 58.3517 331.28 58.3517Z" fill="#FF8585"/>
<path d="M360.811 58.3517C359.819 58.3517 359.051 58.0957 358.507 57.5837C357.963 57.0717 357.691 56.3677 357.691 55.4717V36.7517C357.691 35.8237 357.948 35.1197 358.46 34.6397C359.004 34.1277 359.755 33.8717 360.715 33.8717C361.675 33.8717 362.427 34.1277 362.971 34.6397C363.516 35.1517 363.787 35.8557 363.787 36.7517V38.1437C366.059 35.2957 369.163 33.8717 373.099 33.8717C376.171 33.8717 378.587 34.8477 380.347 36.7997C382.139 38.7197 383.035 41.3437 383.035 44.6717V55.4717C383.035 56.3677 382.747 57.0717 382.171 57.5837C381.595 58.0957 380.827 58.3517 379.867 58.3517C378.875 58.3517 378.107 58.0957 377.563 57.5837C377.019 57.0717 376.747 56.3677 376.747 55.4717V44.6717C376.747 42.8477 376.299 41.4237 375.404 40.3997C374.508 39.3757 373.259 38.8637 371.659 38.8637C369.227 38.8637 367.339 39.5837 365.995 41.0237C364.651 42.4317 363.979 44.4157 363.979 46.9757V55.4717C363.979 56.3677 363.691 57.0717 363.115 57.5837C362.539 58.0957 361.771 58.3517 360.811 58.3517Z" fill="#FF8585"/>
<path d="M400.327 58.3517C397.575 58.3517 395.175 57.8557 393.127 56.8637C391.079 55.8717 389.495 54.4797 388.375 52.6877C387.287 50.8637 386.743 48.7357 386.743 46.3037C386.743 42.3677 387.879 39.3117 390.151 37.1357C392.455 34.9597 395.687 33.8717 399.847 33.8717C402.407 33.8717 404.663 34.2717 406.615 35.0717C408.599 35.8717 410.135 36.9917 411.223 38.4317C412.343 39.8397 412.903 41.4557 412.903 43.2797C412.903 44.8157 412.407 45.9997 411.415 46.8317C410.455 47.6637 409.079 48.0797 407.287 48.0797H392.839C392.839 49.8717 393.463 51.2317 394.711 52.1597C395.991 53.0557 397.863 53.5037 400.327 53.5037C402.919 53.5037 405.127 52.9277 406.951 51.7757C407.975 51.1357 408.775 50.8157 409.351 50.8157C409.895 50.8157 410.423 51.0717 410.935 51.5837C411.479 52.1277 411.751 52.7197 411.751 53.3597C411.751 54.1277 411.431 54.7357 410.791 55.1837C409.447 56.2077 407.879 56.9917 406.087 57.5357C404.295 58.0797 402.375 58.3517 400.327 58.3517ZM405.367 43.6637C405.911 43.6637 406.295 43.5677 406.519 43.3757C406.743 43.1517 406.855 42.7997 406.855 42.3197C406.855 41.1997 406.215 40.3197 404.935 39.6797C403.687 39.0397 401.991 38.7197 399.847 38.7197C397.703 38.7197 396.007 39.1677 394.759 40.0637C393.543 40.9597 392.935 42.1597 392.935 43.6637H405.367Z" fill="#FF8585"/>
<path d="M419.968 58.3517C418.976 58.3517 418.208 58.0957 417.664 57.5837C417.12 57.0717 416.848 56.3677 416.848 55.4717V36.7517C416.848 35.8237 417.104 35.1197 417.616 34.6397C418.16 34.1277 418.912 33.8717 419.872 33.8717C420.832 33.8717 421.584 34.1277 422.128 34.6397C422.672 35.1517 422.944 35.8557 422.944 36.7517V38.3357C423.936 37.0557 425.088 36.0797 426.4 35.4077C427.744 34.7037 429.184 34.3517 430.72 34.3517H431.776C432.8 34.3517 433.584 34.5757 434.128 35.0237C434.704 35.4397 434.992 36.0477 434.992 36.8477C434.992 37.6477 434.704 38.2717 434.128 38.7197C433.584 39.1357 432.8 39.3437 431.776 39.3437H430.144C428 39.3437 426.288 40.0317 425.008 41.4077C423.76 42.7517 423.136 44.6077 423.136 46.9757V55.4717C423.136 56.3677 422.848 57.0717 422.272 57.5837C421.696 58.0957 420.928 58.3517 419.968 58.3517Z" fill="#FF8585"/>
<path d="M28.8992 3.3L59.4285 59.2184L3.30005 7.0875L28.8992 3.3Z" fill="#77DD7E"/>
<path d="M14.7385 28.8904L57.2388 62.7347L6.93181 51.4925L14.7385 28.8904Z" fill="#77DD7E"/>
</g>
<defs>
<filter id="filter0_g_207_20" x="4.88758e-05" y="3.09944e-06" width="438.292" height="75.5236" filterUnits="userSpaceOnUse" color-interpolation-filters="sRGB">
<feFlood flood-opacity="0" result="BackgroundImageFix"/>
<feBlend mode="normal" in="SourceGraphic" in2="BackgroundImageFix" result="shape"/>
<feTurbulence type="fractalNoise" baseFrequency="0.43478262424468994 0.43478262424468994" numOctaves="3" seed="3699" />
<feDisplacementMap in="shape" scale="6.5999999046325684" xChannelSelector="R" yChannelSelector="G" result="displacedImage" width="100%" height="100%" />
<feMerge result="effect1_texture_207_20">
<feMergeNode in="displacedImage"/>
</feMerge>
</filter>
</defs>
</svg>
