<svg width="328" height="286" viewBox="0 0 328 286" fill="none" xmlns="http://www.w3.org/2000/svg">
<g filter="url(#filter0_g_210_23)">
<path d="M50.6514 178.696C39.9262 170.364 22.3989 151.075 38.0917 140.585C50.7007 132.156 60.0071 132.088 64.9035 133.705M64.9035 133.705C66.101 134.101 67.0347 134.597 67.6885 135.097C69.4836 136.7 71.8503 140.563 66.9564 143.194C60.8389 146.483 59.1225 138.644 62.7915 135.615C63.4401 135.079 64.1458 134.414 64.9035 133.705ZM64.9035 133.705C68.0444 130.77 72.079 127.099 76.6374 128.891M76.6374 128.891C77.2008 129.113 77.7722 129.418 78.3509 129.818C83.4634 133.354 81.6541 136.199 80.1104 137.18C76.7141 137.193 70.4974 136.215 72.8007 132.198C73.6263 130.757 75.0169 129.684 76.6374 128.891ZM76.6374 128.891C80.668 126.919 86.1203 126.679 87.8359 126.834C90.2413 127.051 98.8146 128.787 105.772 132.297C112.73 135.808 143.455 155.393 147.066 142.273" stroke="#FC93BB"/>
</g>
<path d="M240.435 12.0506L316.743 65.8123L228.537 106.633L152.229 52.8712L240.435 12.0506Z" fill="#E6E6E6"/>
<path d="M152.229 52.8712L228.537 106.633L219.872 202.474L143.564 148.712L152.229 52.8712Z" fill="#C0C0C0"/>
<path d="M156.788 77.2568C157.331 71.2514 161.741 69.1613 166.676 72.5707L211.425 103.488C216.434 106.948 220.073 114.749 219.522 120.845L214.73 173.845C214.176 179.976 209.6 182.004 204.578 178.344L159.973 145.828C155.084 142.263 151.601 134.628 152.14 128.658L156.788 77.2568Z" fill="white"/>
<path d="M228.537 106.633L316.743 65.8123L308.078 161.653L219.872 202.474L228.537 106.633Z" fill="#9A9A9A"/>
<path d="M109.012 144.349L192.571 203.219L156.129 220.084L72.5697 161.214L109.012 144.349Z" fill="#E6E6E6"/>
<path d="M72.5697 161.214L156.129 220.084L155.669 225.174L72.1097 166.304L72.5697 161.214Z" fill="#C0C0C0"/>
<path d="M156.129 220.084L192.571 203.219L192.111 208.309L155.669 225.174L156.129 220.084Z" fill="#9A9A9A"/>
<path d="M68.9923 170.054L171.651 242.38L113.343 269.364L10.6843 197.038L68.9923 170.054Z" fill="url(#paint0_linear_210_23)"/>
<path d="M10.6843 197.038L113.343 269.364L112.948 273.727L10.2898 201.401L10.6843 197.038Z" fill="url(#paint1_linear_210_23)"/>
<path d="M113.343 269.364L171.651 242.38L171.256 246.743L112.948 273.727L113.343 269.364Z" fill="url(#paint2_linear_210_23)"/>
<path d="M144.645 203.512L165.055 191.337M151.828 204.161L159.969 210.215M154.482 201.5L163.581 207.641M157.571 199.362L166.192 205.46M161.227 196.309L169.717 203.845M88.4734 158.465L138.821 193.986M91.5658 156.325L141.982 191.893M95.6168 154.271L144.336 187.226M99.581 153.178L147.515 184.126M102.717 150.558L150.651 181.506M131.621 236.51L127.548 237.146M94.3429 171.284L98.3948 169.245L131.152 191.933L128.452 195.056M152.395 208.563L148.783 211.138L156.011 216.625L159.623 214.051L152.395 208.563ZM148.496 187.246L143.749 191.628L147.763 195.359L158.086 188.113L155.382 185.944L151.723 188.981L148.496 187.246Z" stroke="#BFBFBF"/>
<path d="M29.2988 202.157L72.3833 180.951" stroke="#FC93BB"/>
<path fill-rule="evenodd" clip-rule="evenodd" d="M131.06 237.168C131.06 237.168 131.482 234.893 144.903 232.081C158.324 229.27 190.081 222.004 190.081 222.004C190.081 222.004 157.587 232.222 144.69 235.277C131.792 238.333 131.06 237.168 131.06 237.168Z" fill="url(#paint3_linear_210_23)"/>
<path d="M128.602 236.712C130.241 237.016 131.88 237.32 133.518 237.624C133.507 237.686 133.493 237.745 133.478 237.801C133.465 237.853 133.465 237.848 133.459 237.871C133.448 237.907 133.437 237.941 133.425 237.974C133.402 238.038 133.394 238.057 133.378 238.095C133.345 238.173 133.33 238.2 133.308 238.242C133.267 238.319 133.242 238.356 133.219 238.391C133.176 238.453 133.152 238.478 133.139 238.493C133.114 238.518 133.128 238.498 133.158 238.471C133.219 238.413 133.34 238.32 133.485 238.225C133.772 238.034 134.146 237.83 134.538 237.641C135.334 237.256 136.21 236.914 137.121 236.595C139.743 235.684 142.547 234.976 145.377 234.341C160.456 230.929 175.478 227.291 190.464 223.679L189.565 220.365C174.612 225.202 159.559 230.167 144.433 234.193C141.928 234.818 139.43 235.402 136.939 235.862C135.946 236.044 134.958 236.205 133.978 236.317C133.492 236.371 133.003 236.414 132.535 236.428C132.303 236.435 132.077 236.434 131.871 236.419C131.764 236.411 131.675 236.401 131.602 236.387C131.569 236.381 131.54 236.373 131.536 236.373C131.535 236.373 131.537 236.373 131.563 236.386C131.574 236.392 131.592 236.402 131.621 236.422C131.632 236.429 131.657 236.447 131.682 236.468C131.694 236.479 131.706 236.489 131.733 236.516C131.761 236.548 131.762 236.533 131.854 236.669C131.325 237.002 130.796 237.334 130.266 237.667C130.361 237.807 130.369 237.799 130.402 237.837C130.436 237.871 130.453 237.885 130.47 237.9C130.506 237.931 130.548 237.961 130.569 237.976C130.624 238.012 130.672 238.039 130.709 238.059C130.798 238.104 130.853 238.124 130.913 238.147C131.029 238.188 131.127 238.212 131.214 238.232C131.399 238.271 131.544 238.29 131.706 238.306C132.01 238.336 132.286 238.342 132.563 238.342C133.115 238.34 133.648 238.305 134.172 238.26C135.225 238.167 136.252 238.026 137.28 237.865C139.854 237.457 142.397 236.93 144.947 236.362C160.358 232.678 175.47 228.111 190.596 223.643L189.697 220.329C174.643 223.553 159.501 226.814 144.43 229.821C141.477 230.407 138.543 231.06 135.583 232.002C134.546 232.337 133.527 232.699 132.459 233.179C131.929 233.42 131.389 233.688 130.821 234.039C130.53 234.222 130.241 234.417 129.913 234.693C129.749 234.832 129.581 234.985 129.386 235.204C129.286 235.316 129.185 235.44 129.071 235.607C129.012 235.696 128.956 235.783 128.883 235.92C128.845 235.993 128.821 236.04 128.772 236.154C128.749 236.208 128.738 236.236 128.708 236.318C128.693 236.36 128.68 236.402 128.667 236.444C128.659 236.471 128.66 236.466 128.644 236.525C128.628 236.588 128.614 236.65 128.602 236.712ZM133.518 237.624L128.602 236.712L128.822 235.433L130.266 237.667L131.854 236.669L133.518 237.624Z" fill="url(#paint4_linear_210_23)"/>
<g filter="url(#filter1_g_210_23)">
<path d="M206.302 147.456C205.623 148.678 203.987 150.723 201.377 151.67C198.428 152.741 196.111 150.341 195.321 149.007L192.136 151.553L188.588 154.926L184.764 154.23C182.624 153.618 178.489 152.063 179.071 150.74L179.798 149.086L184.989 151.369L186.08 148.889L180.889 146.606L182.344 143.299L178.018 141.397L179.472 138.09L175.147 136.187L173.834 130.676L173.081 132.955M206.302 147.456C206.39 147.297 206.462 147.152 206.518 147.025C206.457 147.163 206.385 147.308 206.302 147.456ZM206.302 147.456C205.555 148.781 203.934 150.269 201.967 147.983C199.78 145.443 199.96 143.154 200.324 142.327L202.869 136.54L197.678 134.257L200.224 128.47L192.939 126.252L193.252 118.497L188.651 112.526L195.02 107.434L187.735 105.217L181.178 101.346L172.388 95.5067L172.075 103.262L168.024 105.428L169.893 108.223L165.843 110.388L167.348 114.01L169.078 114.771M168.714 115.598L166.532 120.558L167.251 123.29L167.157 129.713L169.903 130.921L169.652 140.186L165.903 140.015L168.016 143.904L170.282 144.901L172.827 139.113L173.081 132.955M173.081 132.955L173.107 132.33M176.308 110.398L179.808 111.898L176.808 113.398M176.808 113.398V110.898M176.808 113.398C176.664 113.494 176.494 113.591 176.308 113.681M176.308 113.681C176.008 113.824 175.664 113.947 175.308 114.008M176.308 113.681C176.536 114.218 176.877 114.869 177.274 115.398M175.308 114.008C174.35 114.173 173.307 113.895 172.808 112.398M175.308 114.008C174.641 114.971 173.608 116.998 174.808 117.398C176.008 117.798 176.641 116.898 176.808 116.398L177.274 115.398M177.274 115.398C178.041 116.415 179.018 116.977 179.808 115.398" stroke="black"/>
</g>
<g filter="url(#filter2_g_210_23)">
<path d="M175.308 109.398C175.308 110.226 174.636 110.898 173.808 110.898C172.979 110.898 172.308 110.226 172.308 109.398C172.308 108.569 172.979 107.898 173.808 107.898C174.636 107.898 175.308 108.569 175.308 109.398Z" fill="black"/>
<path d="M185.308 113.398C185.308 114.226 184.636 114.898 183.808 114.898C182.979 114.898 182.308 114.226 182.308 113.398C182.308 112.569 182.979 111.898 183.808 111.898C184.636 111.898 185.308 112.569 185.308 113.398Z" fill="black"/>
</g>
<defs>
<filter id="filter0_g_210_23" x="27.9428" y="122.895" width="123.006" height="59.596" filterUnits="userSpaceOnUse" color-interpolation-filters="sRGB">
<feFlood flood-opacity="0" result="BackgroundImageFix"/>
<feBlend mode="normal" in="SourceGraphic" in2="BackgroundImageFix" result="shape"/>
<feTurbulence type="fractalNoise" baseFrequency="0.097087375819683075 0.097087375819683075" numOctaves="3" seed="3699" />
<feDisplacementMap in="shape" scale="6.8000001907348633" xChannelSelector="R" yChannelSelector="G" result="displacedImage" width="100%" height="100%" />
<feMerge result="effect1_texture_210_23">
<feMergeNode in="displacedImage"/>
</feMerge>
</filter>
<filter id="filter1_g_210_23" x="164.241" y="93.7984" width="43.5348" height="62.4645" filterUnits="userSpaceOnUse" color-interpolation-filters="sRGB">
<feFlood flood-opacity="0" result="BackgroundImageFix"/>
<feBlend mode="normal" in="SourceGraphic" in2="BackgroundImageFix" result="shape"/>
<feTurbulence type="fractalNoise" baseFrequency="5 5" numOctaves="3" seed="5953" />
<feDisplacementMap in="shape" scale="1.6000000238418579" xChannelSelector="R" yChannelSelector="G" result="displacedImage" width="100%" height="100%" />
<feMerge result="effect1_texture_210_23">
<feMergeNode in="displacedImage"/>
</feMerge>
</filter>
<filter id="filter2_g_210_23" x="171.108" y="106.698" width="15.4" height="9.4" filterUnits="userSpaceOnUse" color-interpolation-filters="sRGB">
<feFlood flood-opacity="0" result="BackgroundImageFix"/>
<feBlend mode="normal" in="SourceGraphic" in2="BackgroundImageFix" result="shape"/>
<feTurbulence type="fractalNoise" baseFrequency="2 2" numOctaves="3" seed="7539" />
<feDisplacementMap in="shape" scale="2.4000000953674316" xChannelSelector="R" yChannelSelector="G" result="displacedImage" width="100%" height="100%" />
<feMerge result="effect1_texture_210_23">
<feMergeNode in="displacedImage"/>
</feMerge>
</filter>
<linearGradient id="paint0_linear_210_23" x1="316.624" y1="273.792" x2="39.9481" y2="-16.357" gradientUnits="userSpaceOnUse">
<stop stop-color="#FFE5D5"/>
<stop offset="1" stop-color="#FDBDCB"/>
</linearGradient>
<linearGradient id="paint1_linear_210_23" x1="10.2898" y1="12.0506" x2="354.204" y2="77.8078" gradientUnits="userSpaceOnUse">
<stop stop-color="#FC93E3"/>
<stop offset="1" stop-color="#FC93AA"/>
</linearGradient>
<linearGradient id="paint2_linear_210_23" x1="113.343" y1="269.36" x2="116.609" y2="240.561" gradientUnits="userSpaceOnUse">
<stop stop-color="#D75844"/>
<stop offset="1" stop-color="#E16580"/>
</linearGradient>
<linearGradient id="paint3_linear_210_23" x1="146.351" y1="235.443" x2="177.101" y2="226.628" gradientUnits="userSpaceOnUse">
<stop stop-color="#FC93BB"/>
<stop offset="0.4375" stop-color="#E32D73"/>
</linearGradient>
<linearGradient id="paint4_linear_210_23" x1="148.395" y1="228.864" x2="86.8916" y2="241.179" gradientUnits="userSpaceOnUse">
<stop stop-color="#FC93BB"/>
<stop offset="1" stop-color="#C71A26"/>
</linearGradient>
</defs>
</svg>
