<svg width="1280" height="13" viewBox="0 0 1280 13" fill="none" xmlns="http://www.w3.org/2000/svg">
<path d="M0 12.4369C-1.37042e-07 10.8693 1.50024 9.31709 4.41504 7.86884C7.32971 6.42059 11.6021 5.10469 16.9878 3.99625C22.3737 2.88781 28.7675 2.00856 35.8043 1.40868C42.8412 0.808788 50.3833 0.500031 58 0.500031C65.6167 0.50003 73.1588 0.808785 80.1957 1.40867C87.2325 2.00855 93.6263 2.8878 99.0122 3.99624C104.398 5.10468 108.67 6.42059 111.585 7.86883C114.5 9.31708 116 10.8693 116 12.4369C116 10.8693 117.513 9.31708 120.453 7.86883C123.393 6.42058 127.702 5.10468 133.134 3.99624C138.567 2.8878 145.016 2.00855 152.113 1.40867C159.211 0.808777 166.818 0.500021 174.5 0.50002C182.182 0.50002 189.789 0.808775 196.887 1.40866C203.984 2.00854 210.433 2.88779 215.866 3.99623C221.298 5.10467 225.607 6.42058 228.547 7.86882C231.487 9.31707 233 10.8693 233 12.4369C233 10.8693 234.5 9.31707 237.415 7.86882C240.33 6.42057 244.602 5.10467 249.988 3.99623C255.374 2.88779 261.767 2.00854 268.804 1.40866C275.841 0.808767 283.383 0.500011 291 0.50001C298.617 0.50001 306.159 0.808765 313.196 1.40865C320.233 2.00853 326.626 2.88778 332.012 3.99622C337.398 5.10466 341.67 6.42057 344.585 7.86881C347.5 9.31706 349 10.8693 349 12.4368C349 10.8693 350.513 9.31706 353.453 7.86881C356.393 6.42056 360.702 5.10466 366.134 3.99622C371.566 2.88778 378.016 2.00853 385.113 1.40865C392.211 0.808757 399.818 0.500001 407.5 0.5C415.182 0.499999 422.789 0.808754 429.887 1.40864C436.985 2.00852 443.434 2.88777 448.866 3.99621C454.298 5.10465 458.607 6.42056 461.547 7.8688C464.487 9.31705 466 10.8693 466 12.4368C466 10.8693 467.5 9.31705 470.415 7.8688C473.33 6.42055 477.602 5.10465 482.988 3.99621C488.374 2.88777 494.767 2.00852 501.804 1.40864C508.841 0.808747 516.383 0.49999 524 0.49999C531.617 0.499989 539.159 0.808744 546.196 1.40863C553.233 2.00851 559.626 2.88776 565.012 3.9962C570.398 5.10464 574.67 6.42055 577.585 7.86879C580.5 9.31704 582 10.8693 582 12.4368C582 10.8693 583.5 9.31704 586.415 7.86879C589.33 6.42054 593.602 5.10464 598.988 3.9962C604.374 2.88776 610.767 2.00851 617.804 1.40863C624.841 0.808737 632.383 0.49998 640 0.49998C647.617 0.499979 655.159 0.808734 662.196 1.40862C669.233 2.0085 675.626 2.88775 681.012 3.99619C686.398 5.10463 690.67 6.42054 693.585 7.86878C696.5 9.31703 698 10.8692 698 12.4368C698 10.8692 699.5 9.31703 702.415 7.86878C705.33 6.42053 709.602 5.10463 714.988 3.99619C720.374 2.88775 726.767 2.0085 733.804 1.40862C740.841 0.808727 748.383 0.49997 756 0.49997C763.617 0.499969 771.159 0.808724 778.196 1.40861C785.233 2.00849 791.626 2.88774 797.012 3.99618C802.398 5.10462 806.67 6.42053 809.585 7.86877C812.5 9.31702 814 10.8692 814 12.4368C814 10.8692 815.513 9.31702 818.453 7.86877C821.393 6.42052 825.702 5.10462 831.134 3.99618C836.566 2.88774 843.015 2.00849 850.113 1.40861C857.211 0.808716 864.818 0.49996 872.5 0.499959C880.182 0.499959 887.789 0.808714 894.887 1.4086C901.985 2.00848 908.434 2.88773 913.866 3.99617C919.298 5.10461 923.607 6.42052 926.547 7.86876C929.487 9.31701 931 10.8692 931 12.4368C931 10.8692 932.5 9.31701 935.415 7.86876C938.33 6.42051 942.602 5.10461 947.988 3.99617C953.374 2.88773 959.767 2.00848 966.804 1.4086C973.841 0.808706 981.383 0.49995 989 0.499949C996.617 0.499948 1004.16 0.808704 1011.2 1.40859C1018.23 2.00847 1024.63 2.88772 1030.01 3.99616C1035.4 5.1046 1039.67 6.42051 1042.59 7.86875C1045.5 9.317 1047 10.8692 1047 12.4368C1047 10.8692 1048.51 9.317 1051.45 7.86875C1054.39 6.4205 1058.7 5.1046 1064.13 3.99616C1069.57 2.88772 1076.02 2.00847 1083.11 1.40859C1090.21 0.808696 1097.82 0.49994 1105.5 0.499939C1113.18 0.499938 1120.79 0.808693 1127.89 1.40858C1134.98 2.00846 1141.43 2.88771 1146.87 3.99615C1152.3 5.10459 1156.61 6.4205 1159.55 7.86874C1162.49 9.31699 1164 10.8692 1164 12.4368C1164 10.8692 1165.5 9.31699 1168.41 7.86874C1171.33 6.42049 1175.6 5.10459 1180.99 3.99615C1186.37 2.88771 1192.77 2.00846 1199.8 1.40858C1206.84 0.808686 1214.38 0.499929 1222 0.499929C1229.62 0.499928 1237.16 0.808683 1244.2 1.40857C1251.23 2.00845 1257.63 2.8877 1263.01 3.99614C1268.4 5.10458 1272.67 6.42049 1275.59 7.86873C1278.5 9.31698 1280 10.8692 1280 12.4368" stroke="black"/>
</svg>
